<?xml version="1.0" encoding="utf-8"?>
<!-- Generator: Adobe Illustrator 26.5.0, SVG Export Plug-In . SVG Version: 6.00 Build 0)  -->
<svg version="1.1" id="Livello_1" xmlns="http://www.w3.org/2000/svg" xmlns:xlink="http://www.w3.org/1999/xlink" x="0px" y="0px"
	 viewBox="0 0 72.8 96.2" style="enable-background:new 0 0 72.8 96.2;" xml:space="preserve">
<style type="text/css">
	.st0{display:none;}
	.st1{display:inline;fill:#47A5DC;}
	.st2{display:inline;}
	.st3{display:inline;fill:#FFFFFF;}
	.st4{fill:#4AA4DB;}
	.st5{fill:#010101;}
	.st6{fill:#FFFFFF;}
</style>
<g class="st0">
	<polygon class="st1" points="0.1,0 72.8,0 72.8,72.5 0.1,72.5 	"/>
	<path class="st2" d="M46.6,43.2c-2.3-3.1-5.6-5-9.6-5.7l-1-0.2l-6-0.8c-0.5,4.4,1.3,7.3,3.6,9.1c0.6,0.5,1.3,0.9,2,1.3
		c1,0.5,2,0.9,2.8,1.2c0.1,0.1,0.3,0.1,0.4,0.1c3,1.1,5.1,3.7,5.1,7c0,4.2-3.5,7.6-7.8,7.6h0.1c-0.5,0-1,0-1.5-0.1l0,0l0,0
		c-3.1-0.4-6-1.5-8.5-3.4c-0.1-0.1-0.1-0.1-0.2-0.2c-2.3-1.7-4.3-4.1-6-7.1c-2.7-4.7-4.2-9.9-4.4-15.6c0-0.1,0-0.1,0-0.2
		s0-0.1,0-0.2c0-0.5,0-0.9,0-1.4c0-1.4,0.1-2.8,0.3-4.2c0.7-5.7,2.4-10.6,4.9-14.9l0,0c1.5-2.4,3.2-4.6,5.3-6.5
		c0.7-0.7,1.5-1.3,2.3-1.9c-0.2,0-0.4,0.1-0.5,0.1C17,10.4,8.5,19.7,6.7,31.5c0,0.3-0.1,0.5-0.1,0.8c-0.1,1.2-0.2,2.4-0.2,3.6l0,0
		l0,0c0,0.1,0,0.2,0,0.3c0,0.1,0,0.1,0,0.2c0,3.4,0.6,6.7,1.7,9.8c1.1,2.9,2.6,5.7,4.6,8.3c0.9,1.2,2,2.4,3,3.4
		c4.5,4.3,10.3,7.2,16.9,8c4.1,0.4,7.8-0.5,11-2.9c3.2-2.4,5.1-5.8,5.6-9.9C49.9,49.2,48.9,46.3,46.6,43.2L46.6,43.2z"/>
	<path class="st3" d="M66.5,36.1c0-0.1,0-0.1,0-0.2c0-3.4-0.6-6.7-1.7-9.8c-1.1-2.9-2.6-5.7-4.6-8.3c-1-1.2-2-2.4-3-3.4
		c-4.5-4.3-10.3-7.2-16.9-8C36.2,6,32.5,7,29.3,9.3c-3.2,2.4-5.1,5.8-5.6,9.9c-0.5,4,0.5,6.9,2.8,10s5.6,5,9.6,5.7l1,0.2l6,0.8
		c0.5-4.4-1.3-7.3-3.6-9.1c-0.6-0.5-1.3-0.9-2-1.3c-1-0.5-2-0.9-2.8-1.2c-0.1-0.1-0.3-0.1-0.4-0.1c-3-1.1-5.1-3.7-5.1-7
		c0-4.2,3.5-7.6,7.8-7.6h-0.1c0.5,0,1,0,1.5,0.1l0,0l0,0c3.1,0.4,6,1.5,8.5,3.4c0.1,0.1,0.1,0.1,0.2,0.2c2.3,1.7,4.3,4.1,6,7.1
		c2.7,4.7,4.2,9.9,4.4,15.6c0,0.1,0,0.1,0,0.2s0,0.1,0,0.2c0,0.5,0,0.9,0,1.4c0,1.4-0.1,2.8-0.3,4.2c-0.7,5.7-2.3,10.6-4.9,14.9l0,0
		c-1.5,2.4-3.2,4.6-5.3,6.5c-0.7,0.7-1.5,1.3-2.3,1.9c0.2,0,0.4-0.1,0.5-0.1C56.1,62,64.6,52.7,66.4,40.9c0-0.3,0.1-0.5,0.1-0.8
		c0.1-1.2,0.2-2.4,0.2-3.6l0,0l0,0C66.5,36.3,66.5,36.2,66.5,36.1L66.5,36.1z"/>
	<polygon class="st3" points="64.4,16.7 64.4,8.5 56.1,8.5 	"/>
	<path class="st2" d="M68.5,83.2L67,78.6l0,0l-1.6,4.6H68.5L68.5,83.2z M68.3,75.5l4.5,12.6h-2.7l-0.9-2.8h-4.5l-0.9,2.8h-2.7
		l4.5-12.6H68.3L68.3,75.5z"/>
	<path class="st2" d="M44.2,81.2c0.6,0,1.1-0.1,1.4-0.4c0.3-0.3,0.5-0.7,0.5-1.4c0-0.6-0.2-1.1-0.5-1.3c-0.3-0.3-0.8-0.4-1.4-0.4
		h-2.9v3.6L44.2,81.2L44.2,81.2z M45.2,75.5c0.5,0,1,0.1,1.5,0.3c0.4,0.2,0.8,0.4,1.1,0.8c0.3,0.3,0.5,0.7,0.7,1.1s0.2,0.9,0.2,1.4
		c0,0.7-0.1,1.4-0.4,1.9c-0.3,0.5-0.8,1-1.5,1.2l0,0c0.3,0.1,0.6,0.2,0.8,0.4c0.2,0.2,0.4,0.4,0.5,0.7c0.1,0.3,0.2,0.6,0.3,0.9
		s0.1,0.6,0.1,1c0,0.2,0,0.4,0,0.7c0,0.3,0,0.5,0.1,0.8c0,0.3,0.1,0.6,0.1,0.8c0.1,0.3,0.2,0.5,0.3,0.6h-2.6
		c-0.1-0.4-0.2-0.9-0.3-1.4c0-0.6-0.1-1.1-0.2-1.6c-0.1-0.7-0.3-1.1-0.6-1.5c-0.3-0.3-0.8-0.5-1.4-0.5h-2.6V88h-2.6V75.4L45.2,75.5
		L45.2,75.5z"/>
	<path class="st2" d="M5.6,81.2c0.6,0,1.1-0.1,1.4-0.4s0.5-0.7,0.5-1.4c0-0.6-0.2-1.1-0.5-1.3c-0.3-0.3-0.8-0.4-1.4-0.4H2.7v3.6
		L5.6,81.2L5.6,81.2z M6.6,75.5c0.5,0,1,0.1,1.5,0.3c0.4,0.2,0.8,0.4,1.1,0.8c0.3,0.3,0.5,0.7,0.7,1.1s0.2,0.9,0.2,1.4
		c0,0.7-0.1,1.4-0.4,1.9s-0.8,1-1.5,1.2l0,0c0.3,0.1,0.6,0.2,0.8,0.4c0.2,0.2,0.4,0.4,0.5,0.7c0.1,0.3,0.2,0.6,0.3,0.9
		c0.1,0.3,0.1,0.6,0.1,1c0,0.2,0,0.4,0,0.7c0,0.3,0,0.5,0.1,0.8c0,0.3,0.1,0.6,0.1,0.8c0.1,0.3,0.2,0.5,0.3,0.6H7.8
		c-0.1-0.4-0.2-0.9-0.3-1.4c0-0.6-0.1-1.1-0.2-1.6C7.2,84.4,7,84,6.7,83.6c-0.3-0.3-0.8-0.5-1.4-0.5H2.7V88H0.1V75.4L6.6,75.5
		L6.6,75.5z"/>
	<polygon class="st2" points="14.4,75.5 14.4,88.1 11.8,88.1 11.8,75.5 	"/>
	<path class="st2" d="M24,78.8c-0.2-0.3-0.4-0.5-0.6-0.7s-0.5-0.4-0.8-0.5s-0.6-0.2-0.9-0.2c-0.6,0-1.1,0.1-1.5,0.4
		c-0.4,0.2-0.8,0.6-1,1c-0.3,0.4-0.4,0.9-0.6,1.4c-0.1,0.5-0.2,1.1-0.2,1.6s0.1,1,0.2,1.5s0.3,1,0.6,1.4c0.3,0.4,0.6,0.7,1,1
		c0.4,0.2,0.9,0.4,1.5,0.4c0.8,0,1.4-0.3,1.9-0.8s0.7-1.2,0.8-2.1H27c-0.1,0.8-0.2,1.5-0.5,2.1s-0.7,1.2-1.1,1.6
		c-0.5,0.4-1,0.8-1.6,1s-1.3,0.4-2,0.4c-0.9,0-1.7-0.2-2.5-0.5c-0.7-0.3-1.4-0.8-1.9-1.4s-0.9-1.3-1.2-2.1c-0.3-0.8-0.4-1.7-0.4-2.6
		s0.1-1.8,0.4-2.6c0.3-0.8,0.7-1.5,1.2-2.1s1.1-1.1,1.9-1.4c0.7-0.3,1.6-0.5,2.5-0.5c0.7,0,1.3,0.1,1.9,0.3c0.6,0.2,1.1,0.5,1.6,0.9
		s0.8,0.9,1.2,1.4c0.3,0.6,0.5,1.2,0.6,1.9h-2.6C24.2,79.4,24.1,79.1,24,78.8L24,78.8z"/>
	<polygon class="st2" points="37.2,75.5 37.2,77.8 30.9,77.8 30.9,80.5 36.7,80.5 36.7,82.7 30.9,82.7 30.9,85.8 37.4,85.8 
		37.4,88.1 28.3,88.1 28.3,75.5 	"/>
	<path class="st2" d="M58.1,78.8c-0.2-0.3-0.4-0.5-0.6-0.7s-0.5-0.4-0.8-0.5s-0.6-0.2-0.9-0.2c-0.6,0-1.1,0.1-1.5,0.4
		c-0.4,0.2-0.8,0.6-1,1c-0.3,0.4-0.4,0.9-0.6,1.4c-0.1,0.5-0.2,1.1-0.2,1.6s0.1,1,0.2,1.5c0.1,0.5,0.3,1,0.6,1.4s0.6,0.7,1,1
		c0.4,0.2,0.9,0.4,1.5,0.4c0.8,0,1.4-0.3,1.9-0.8s0.7-1.2,0.8-2.1h2.6c-0.1,0.8-0.2,1.5-0.5,2.1s-0.7,1.2-1.1,1.6
		c-0.5,0.4-1,0.8-1.6,1s-1.3,0.4-2,0.4c-0.9,0-1.7-0.2-2.5-0.5c-0.7-0.3-1.4-0.8-1.9-1.4s-0.9-1.3-1.2-2.1c-0.3-0.8-0.4-1.7-0.4-2.6
		s0.1-1.8,0.4-2.6c0.3-0.8,0.7-1.5,1.2-2.1s1.1-1.1,1.9-1.4c0.7-0.3,1.6-0.5,2.5-0.5c0.7,0,1.3,0.1,1.9,0.3c0.6,0.2,1.1,0.5,1.6,0.9
		s0.8,0.9,1.2,1.4c0.3,0.6,0.5,1.2,0.6,1.9h-2.6C58.3,79.4,58.2,79.1,58.1,78.8L58.1,78.8z"/>
	<path class="st2" d="M4,90.7v1H1.3v1.2h2.5v0.9H1.3v1.3H4v1H0.1v-5.4H4L4,90.7z M9,94l-0.7-2l0,0l-0.7,2H9L9,94z M9,90.7l1.9,5.4
		H9.7l-0.4-1.2H7.4L7,96.1H5.9l2-5.4H9L9,90.7z M12.5,90.7v4.4H15v1h-3.7v-5.4H12.5L12.5,90.7z M14.6,91.7v-1h4.2v1h-1.5v4.4h-1.1
		v-4.4H14.6L14.6,91.7z M21.4,94l-0.7-2l0,0L20,94H21.4L21.4,94z M21.3,90.7l1.9,5.4H22l-0.4-1.2h-1.9l-0.4,1.2h-1.1l2-5.4H21.3
		L21.3,90.7z M28.9,90.7v1h-2.5V93h2.2v0.9h-2.2v2.2h-1.1v-5.4H28.9L28.9,90.7z M30.3,94.1c0.1,0.2,0.1,0.4,0.2,0.6
		c0.1,0.2,0.3,0.3,0.4,0.4c0.2,0.1,0.4,0.2,0.7,0.2c0.3,0,0.5-0.1,0.7-0.2c0.2-0.1,0.3-0.2,0.4-0.4s0.2-0.4,0.2-0.6
		c0.1-0.2,0.1-0.4,0.1-0.7c0-0.2,0-0.5-0.1-0.7s-0.1-0.4-0.2-0.6c-0.1-0.2-0.3-0.3-0.4-0.4c-0.2-0.1-0.4-0.2-0.7-0.2
		c-0.3,0-0.5,0.1-0.7,0.2c-0.2,0.1-0.3,0.2-0.4,0.4s-0.2,0.4-0.2,0.6c-0.1,0.2-0.1,0.5-0.1,0.7C30.3,93.6,30.3,93.8,30.3,94.1
		L30.3,94.1z M29.3,92.3c0.1-0.3,0.3-0.7,0.5-0.9c0.2-0.3,0.5-0.5,0.8-0.6s0.7-0.2,1.1-0.2s0.8,0.1,1.1,0.2c0.3,0.1,0.6,0.3,0.8,0.6
		c0.2,0.3,0.4,0.6,0.5,0.9c0.1,0.3,0.2,0.7,0.2,1.1c0,0.4-0.1,0.8-0.2,1.1s-0.3,0.6-0.5,0.9s-0.5,0.5-0.8,0.6s-0.7,0.2-1.1,0.2
		s-0.8-0.1-1.1-0.2c-0.3-0.1-0.6-0.3-0.8-0.6c-0.2-0.3-0.4-0.6-0.5-0.9c-0.1-0.3-0.2-0.7-0.2-1.1C29.1,93,29.2,92.6,29.3,92.3
		L29.3,92.3z M37.1,93.1c0.3,0,0.5-0.1,0.6-0.2c0.1-0.1,0.2-0.3,0.2-0.6s-0.1-0.5-0.2-0.6s-0.3-0.2-0.6-0.2h-1.2V93h1.2V93.1z
		 M37.5,90.7c0.2,0,0.4,0,0.6,0.1s0.3,0.2,0.5,0.3c0.1,0.1,0.2,0.3,0.3,0.5C39,91.8,39,92,39,92.2c0,0.3-0.1,0.6-0.2,0.8
		s-0.3,0.4-0.6,0.5l0,0c0.1,0,0.3,0.1,0.3,0.2c0.1,0.1,0.2,0.2,0.2,0.3c0.1,0.1,0.1,0.2,0.1,0.4c0,0.1,0,0.3,0.1,0.4
		c0,0.1,0,0.2,0,0.3s0,0.2,0,0.4c0,0.1,0,0.2,0.1,0.3c0,0.1,0.1,0.2,0.1,0.3H38c-0.1-0.2-0.1-0.4-0.1-0.6c0-0.2,0-0.5-0.1-0.7
		c0-0.3-0.1-0.5-0.2-0.6S37.3,94,37,94h-1.1v2.1h-1.1v-5.4L37.5,90.7L37.5,90.7z M41.6,90.7l1.2,3.7l0,0l1.1-3.7h1.6v5.4h-1.1v-3.9
		l0,0l-1.3,3.9h-0.9l-1.3-3.8l0,0v3.8H40v-5.4H41.6L41.6,90.7z M49.2,94l-0.7-2l0,0l-0.7,2H49.2L49.2,94z M49.1,90.7l1.9,5.4h-1.2
		l-0.4-1.2h-1.9l-0.4,1.2H46l2-5.4H49.1L49.1,90.7z M54.2,91.7h-2.6v-1h4.1v0.9l-2.8,3.5h2.8v1h-4.4v-0.9L54.2,91.7L54.2,91.7z
		 M57.6,90.7v5.4h-1.1v-5.4H57.6L57.6,90.7z M59.3,94.1c0.1,0.2,0.1,0.4,0.2,0.6c0.1,0.2,0.3,0.3,0.4,0.4c0.2,0.1,0.4,0.2,0.7,0.2
		s0.5-0.1,0.7-0.2c0.2-0.1,0.3-0.2,0.4-0.4c0.1-0.2,0.2-0.4,0.2-0.6c0.1-0.2,0.1-0.4,0.1-0.7c0-0.2,0-0.5-0.1-0.7s-0.1-0.4-0.2-0.6
		c-0.1-0.2-0.3-0.3-0.4-0.4c-0.2-0.1-0.4-0.2-0.7-0.2s-0.5,0.1-0.7,0.2c-0.2,0.1-0.3,0.2-0.4,0.4c-0.1,0.2-0.2,0.4-0.2,0.6
		c-0.1,0.2-0.1,0.5-0.1,0.7C59.3,93.6,59.3,93.8,59.3,94.1L59.3,94.1z M58.3,92.3c0.1-0.3,0.3-0.7,0.5-0.9c0.2-0.3,0.5-0.5,0.8-0.6
		s0.7-0.2,1.1-0.2c0.4,0,0.8,0.1,1.1,0.2c0.3,0.1,0.6,0.3,0.8,0.6s0.4,0.6,0.5,0.9c0.1,0.3,0.2,0.7,0.2,1.1c0,0.4-0.1,0.8-0.2,1.1
		c-0.1,0.3-0.3,0.6-0.5,0.9s-0.5,0.5-0.8,0.6s-0.7,0.2-1.1,0.2c-0.4,0-0.8-0.1-1.1-0.2c-0.3-0.1-0.6-0.3-0.8-0.6s-0.4-0.6-0.5-0.9
		c-0.1-0.3-0.2-0.7-0.2-1.1S58.2,92.6,58.3,92.3L58.3,92.3z M64.9,90.7l2.2,3.7l0,0v-3.7h1.1v5.4H67l-2.2-3.6l0,0v3.6h-1.1v-5.4
		H64.9L64.9,90.7z M72.8,90.7v1H70v1.2h2.5v0.9H70v1.3h2.8v1h-3.9v-5.4H72.8L72.8,90.7z"/>
</g>
<g>
	<g>
		<rect class="st4" width="72.2" height="72.4"/>
		<path class="st5" d="M45.8,43.3c-2.3-3.1-5.5-5-9.5-5.7l-1-0.2l-5.9-0.8c-0.5,4.4,1.3,7.2,3.6,9c0.6,0.5,1.3,0.9,2,1.3
			c1,0.5,2,0.9,2.8,1.2c0.1,0.1,0.3,0.1,0.4,0.1c3,1,5.1,3.7,5.1,7c0,4.2-3.5,7.6-7.7,7.6h0.1c-0.5,0-1,0-1.5-0.1l0,0l0,0
			c-3.1-0.4-5.9-1.5-8.4-3.4c-0.1-0.1-0.1-0.1-0.2-0.2c-2.2-1.7-4.2-4.1-6-7c-2.7-4.7-4.2-9.9-4.3-15.5c0-0.1,0-0.1,0-0.2
			s0-0.1,0-0.2c0-0.5,0-0.9,0-1.4c0-1.4,0.1-2.8,0.3-4.2c0.7-5.6,2.3-10.6,4.9-14.8l0,0c1.5-2.4,3.2-4.6,5.3-6.5
			c0.7-0.7,1.5-1.3,2.3-1.9c-0.2,0-0.4,0.1-0.5,0.1c-10.8,3.2-19.3,12.4-21,24.2c0,0.2-0.1,0.5-0.1,0.8C6.1,33.8,6,35,6,36.2l0,0
			l0,0c0,0.1,0,0.2,0,0.3c0,0.1,0,0.1,0,0.2c0,3.4,0.6,6.7,1.7,9.8c1.1,2.9,2.6,5.7,4.6,8.3c0.9,1.2,1.9,2.4,3,3.4
			c4.5,4.2,10.2,7.2,16.8,8c4.1,0.4,7.8-0.5,10.9-2.9c3.2-2.4,5.1-5.8,5.6-9.9C49.1,49.3,48.1,46.4,45.8,43.3z"/>
		<path class="st6" d="M65.6,36.3c0-0.1,0-0.1,0-0.2c0-3.4-0.6-6.7-1.7-9.8c-1.1-2.9-2.6-5.7-4.6-8.3c-0.9-1.2-1.9-2.4-3-3.4
			c-4.5-4.2-10.2-7.2-16.8-8c-4.1-0.4-7.8,0.5-10.9,2.9c-3.2,2.4-5.1,5.8-5.6,9.9c-0.5,4,0.5,6.9,2.8,10s5.5,5,9.5,5.7l1,0.2
			l5.9,0.8c0.5-4.4-1.3-7.2-3.6-9c-0.6-0.5-1.3-0.9-2-1.3c-1-0.5-2-0.9-2.8-1.2c-0.1,0-0.3-0.1-0.4-0.1c-3-1-5.1-3.7-5.1-7
			c0-4.2,3.5-7.6,7.7-7.6l0,0c0.5,0,1,0,1.5,0.1l0,0l0,0c3.1,0.4,5.9,1.5,8.4,3.4c0.1,0.1,0.1,0.1,0.2,0.2c2.3,1.7,4.2,4.1,6,7
			c2.7,4.7,4.2,9.9,4.3,15.5c0,0.1,0,0.1,0,0.2s0,0.1,0,0.2c0,0.5,0,0.9,0,1.4c0,1.4-0.1,2.8-0.3,4.2c-0.7,5.6-2.3,10.6-4.9,14.8
			l0,0c-1.5,2.4-3.2,4.6-5.3,6.5c-0.7,0.7-1.5,1.3-2.3,1.9c0.2,0,0.4-0.1,0.5-0.1C54.9,62,63.4,52.8,65.1,41c0-0.3,0.1-0.5,0.1-0.8
			c0.1-1.2,0.2-2.4,0.2-3.6l0,0l0,0C65.6,36.4,65.6,36.4,65.6,36.3z"/>
		<polygon class="st6" points="63.5,16.9 63.5,8.7 55.3,8.7 		"/>
	</g>
	<g>
		<path class="st5" d="M5.8,83.9C5.8,83.9,5.8,83.8,5.8,83.9c0-0.1,0-0.2,0-0.2c0-0.6,0.1-1.2,0.2-1.7c0.1-0.6,0.3-1.1,0.6-1.6
			c0.3-0.5,0.6-0.9,1-1.1c0.4-0.2,1-0.4,1.6-0.4c0,0,0.1,0,0.1,0c0,0,0,0,0.1,0c0,0,0.1,0,0.1,0c0,0,0,0,0.1,0c0,0,0.1,0,0.1,0
			c0,0,0,0,0.1,0c0,0,0.1,0,0.1,0c0,0,0,0,0.1,0c0.2,0,0.5,0.1,0.7,0.2c0.2,0.1,0.5,0.2,0.7,0.3c0.2,0.1,0.4,0.3,0.5,0.5
			c0.1,0.2,0.2,0.5,0.3,0.8l4.1,0c-0.1-1-0.4-1.8-0.7-2.5c-0.4-0.6-0.9-1.1-1.5-1.4c-0.6-0.3-1.3-0.5-2-0.7
			c-0.7-0.1-1.5-0.2-2.4-0.2c-1.3,0-2.5,0.2-3.5,0.5c-1,0.3-1.8,0.8-2.3,1.5c-0.6,0.6-1.1,1.3-1.4,2c-0.4,0.7-0.6,1.4-0.7,2.2
			c0,0.1,0,0.1,0,0.2c0,0.1,0,0.1,0,0.2c0,0.1,0,0.2,0,0.2c0,0.1,0,0.1,0,0.2c0,0.1,0,0.3,0,0.4c0,0.1,0,0.3,0,0.4
			c0,1.1,0.2,2.2,0.5,3.1c0.4,0.9,0.9,1.7,1.6,2.4C4.2,89.9,5,90.4,6,90.7c0.9,0.3,2,0.5,3.1,0.5c0.2,0,0.4,0,0.7,0
			c0.2,0,0.5,0,0.7,0c0.2,0,0.5,0,0.7,0c0.2,0,0.5,0,0.7-0.1c0.4,0,0.8-0.1,1.1-0.1c0.4,0,0.8-0.1,1.1-0.1c0.4-0.1,0.7-0.1,1-0.2
			c0.3-0.1,0.6-0.1,0.9-0.2v-7.8h-7v3H12v2.4c-0.2,0.1-0.4,0.1-0.6,0.1c-0.2,0-0.4,0.1-0.5,0.1c-0.2,0-0.3,0-0.5,0.1
			c-0.2,0-0.3,0-0.5,0c-0.6,0-1.2-0.1-1.7-0.3c-0.5-0.2-0.9-0.5-1.3-0.9c-0.4-0.4-0.6-0.8-0.8-1.4c-0.2-0.5-0.3-1.1-0.3-1.7
			C5.8,84.1,5.8,84,5.8,83.9C5.8,84,5.8,83.9,5.8,83.9z"/>
		<rect x="19" y="84.2" class="st5" width="5.7" height="2.5"/>
		<polygon class="st5" points="31.6,76.3 27.4,76.3 27.4,90.9 38.1,90.9 38.1,87.9 31.6,87.9 		"/>
		<path class="st5" d="M45.4,76.3l-5.9,14.6h4.3l0.9-2.7h5.7l1,2.7h4.6l-5.7-14.6H45.4z M45.7,85.2l1.9-5.9l1.7,5.9H45.7z"/>
		<path class="st5" d="M70.9,85.5c-0.2-0.4-0.4-0.7-0.8-1c-0.4-0.3-0.7-0.5-1.1-0.7c-0.4-0.2-0.8-0.4-1.2-0.5c0,0,0,0,0,0v0h0
			c0.5,0,0.9-0.1,1.3-0.3c0.2-0.1,0.4-0.2,0.6-0.4c0.1,0,0.1-0.1,0.2-0.1c0.3-0.3,0.6-0.6,0.8-1c0,0,0-0.1,0-0.1c0,0,0,0,0,0
			c0.1-0.3,0.2-0.7,0.2-1.1c0,0,0,0,0,0c0,0,0,0,0,0c0,0,0,0,0,0s0,0,0,0c0,0,0,0,0-0.1c0-0.7-0.1-1.2-0.4-1.7
			c-0.3-0.5-0.6-0.9-1.1-1.2c-0.5-0.3-1.1-0.5-1.8-0.6c-0.4-0.1-0.8-0.1-1.2-0.2c-0.4,0-0.8-0.1-1.1-0.1h-6.5v14.6h6.5
			c1,0,1.9-0.1,2.6-0.2c0.8-0.1,1.4-0.4,1.9-0.7c0.5-0.3,0.9-0.7,1.1-1.2c0.3-0.5,0.4-1.1,0.4-1.8C71.2,86.4,71.1,85.9,70.9,85.5z
			 M62.8,79.1l2.1,0c0.3,0,0.5,0,0.7,0.1c0.2,0.1,0.4,0.2,0.6,0.3c0.1,0.1,0.3,0.3,0.3,0.5c0.1,0.2,0.1,0.4,0.1,0.5
			c0,0.2,0,0.5-0.1,0.6c-0.1,0.2-0.2,0.3-0.3,0.4c-0.1,0.1-0.3,0.2-0.5,0.3C65.4,82,65.1,82,64.8,82h-2.1V79.1z M66.9,86.6
			C66.9,86.6,66.9,86.6,66.9,86.6c0,0.1,0,0.1,0,0.1s0,0,0,0c0,0,0,0,0,0c0,0,0,0,0,0c0,0,0,0,0,0.1c0,0,0,0,0,0s0,0,0,0
			c0,0.1-0.1,0.3-0.2,0.4c-0.1,0.1-0.2,0.3-0.3,0.4c-0.1,0.1-0.3,0.2-0.5,0.3C65.6,88,65.3,88,65,88h-2.2v-3l2.4,0
			c0.2,0,0.4,0,0.6,0.1c0.2,0.1,0.3,0.1,0.5,0.3c0.1,0.1,0.2,0.2,0.3,0.3c0.1,0.1,0.2,0.2,0.2,0.4c0,0.1,0,0.1,0.1,0.2
			c0,0,0,0.1,0,0.1c0,0,0,0,0,0C66.9,86.5,66.9,86.5,66.9,86.6C66.9,86.5,66.9,86.5,66.9,86.6z"/>
	</g>
</g>
</svg>
